#define bullet_width 6
#define bullet_height 6
static unsigned char bullet_bits[] = {
   0x00, 0x06, 0x1e, 0x3e, 0x1e, 0x06 };
